<svg width="84" height="85" viewBox="0 0 84 85" fill="none" xmlns="http://www.w3.org/2000/svg">
<path d="M40.7784 3.57632C40.6099 4.07558 40.1979 5.14807 39.8983 5.99866C39.58 6.84926 39.3179 7.62589 39.3179 7.71834C39.3179 7.8108 39.6175 7.88477 39.9732 7.88477C40.5163 7.88477 40.6473 7.8108 40.741 7.42249C40.8533 6.99719 40.9469 6.96021 41.827 6.96021C42.7071 6.96021 42.8382 7.01568 43.0254 7.42249C43.1939 7.79231 43.3812 7.88477 43.9055 7.88477C44.2612 7.88477 44.5608 7.84778 44.5608 7.8108C44.5608 7.68136 43.4748 4.77825 43.0254 3.66878C42.6322 2.72573 42.5947 2.70723 41.8457 2.70723C41.0967 2.70723 41.0593 2.72573 40.7784 3.57632ZM42.2764 5.88772C41.9206 6.10961 41.3776 6.07263 41.3776 5.83224C41.3776 5.70281 41.4712 5.27751 41.6023 4.8707L41.827 4.13106L42.1641 4.92618C42.4449 5.57337 42.4637 5.75828 42.2764 5.88772Z" fill="#D14D72"/>
<path d="M32.0152 3.76109C31.1352 4.20487 30.7794 4.94452 31.0977 5.70266C31.3411 6.29438 32.2025 6.77515 33.0264 6.77515C33.7192 6.77515 34.075 6.96006 34.075 7.32989C34.075 7.77367 33.5507 7.94009 33.0638 7.64424C32.577 7.34838 31.7531 7.5148 31.6782 7.9216C31.5846 8.38388 32.4833 8.86465 33.4196 8.84616C34.3746 8.84616 35.0861 8.43936 35.3857 7.69971C35.573 7.23743 35.5542 7.07101 35.2734 6.57175C34.9176 5.96154 34.5618 5.79512 33.2698 5.57322C32.5208 5.46228 32.1837 5.05547 32.5395 4.70414C32.708 4.53772 32.8766 4.55621 33.2136 4.72263C33.663 4.96301 34.824 4.85207 34.824 4.5747C34.824 4.50073 34.618 4.26035 34.3746 4.01996C33.7754 3.46523 32.8204 3.35428 32.0152 3.76109Z" fill="#D14D72"/>
<path d="M54.3353 5.11042C53.9608 5.46175 53.8297 5.90554 53.9046 6.58972C53.9233 6.73765 54.3166 7.23691 54.7847 7.66221C55.6647 8.5128 55.7958 8.88262 55.309 9.06754C54.9532 9.19697 54.4851 8.88262 54.4851 8.5128C54.4851 8.27241 53.7735 7.8841 53.3429 7.8841C53.0807 7.8841 53.1369 8.86413 53.4365 9.28943C53.5863 9.49283 54.0544 9.82567 54.4664 10.0106C55.5337 10.4729 56.3388 10.251 56.7882 9.32641C57.0878 8.7162 57.1066 8.58676 56.8444 8.10599C56.6946 7.81013 56.2639 7.34786 55.9082 7.07049C55.1966 6.53424 55.0468 6.09045 55.5337 5.90554C55.7209 5.83158 55.9831 5.97951 56.2265 6.27537C56.4512 6.53424 56.8631 6.81161 57.1627 6.88558C57.6121 6.97803 57.6683 6.94105 57.6683 6.55273C57.6683 5.1659 55.3651 4.16737 54.3353 5.11042Z" fill="#D14D72"/>
<path d="M25.5176 5.88729C25.2742 5.99824 25.0869 6.18315 25.0869 6.2941C25.0869 6.46052 25.6112 7.77339 26.9032 10.7875C27.0156 11.0833 27.0156 11.0833 27.6148 10.8059C27.8769 10.695 28.0829 10.5286 28.0829 10.4361C28.0829 10.1403 26.173 5.6654 26.0419 5.68389C25.9857 5.68389 25.7423 5.77635 25.5176 5.88729Z" fill="#D14D72"/>
<path d="M61.2444 10.0292C60.1958 11.6934 59.9336 12.2296 60.1396 12.3591C60.6452 12.6919 61.0759 12.9138 61.1133 12.8398C61.132 12.8028 61.3942 12.396 61.6751 11.9153L62.1806 11.0277L62.9671 11.5085C63.3978 11.7858 63.7723 12.0262 63.8097 12.0447C63.8472 12.0632 63.6225 12.507 63.3041 13.0247L62.7424 13.9678L63.1918 14.2452C63.4539 14.4116 63.7161 14.541 63.791 14.541C63.8659 14.541 64.54 13.5425 65.289 12.3221L66.6372 10.1216L66.2252 9.82576C65.626 9.41896 65.4575 9.47443 64.9894 10.288C64.7647 10.6948 64.5025 11.0277 64.4089 11.0277C64.0906 11.0277 62.9109 10.2511 62.9109 10.0292C62.9109 9.91822 63.1169 9.51141 63.379 9.14159C63.8097 8.51289 63.8097 8.47591 63.4914 8.18005C63.3041 8.01363 63.042 7.88419 62.8735 7.88419C62.7237 7.88419 61.9934 8.82724 61.2444 10.0292Z" fill="#D14D72"/>
<path d="M18.496 9.56718C17.7844 9.97399 17.2227 10.3438 17.2227 10.3808C17.2227 10.4178 17.8593 11.4533 18.6457 12.6737L20.0688 14.9111L20.6306 14.5228C21.1174 14.1715 21.1549 14.0975 20.9115 13.7277C19.919 12.2299 19.9752 12.119 21.3421 12.8586C22.2784 13.3764 22.3907 13.3949 22.8776 13.136C23.1585 12.988 23.4019 12.7846 23.4019 12.6922C23.4019 12.5997 22.9712 12.3039 22.4656 12.045C21.6417 11.6382 21.5481 11.5272 21.7166 11.2129C22.0537 10.5842 21.9226 9.91851 21.3609 9.34529C20.6119 8.60564 20.0127 8.66111 18.496 9.56718ZM20.5557 10.5287C20.6306 10.917 20.1063 11.5827 19.7131 11.5827C19.582 11.5827 19.3573 11.3608 19.2449 11.1019C19.039 10.6767 19.0577 10.5842 19.376 10.3623C19.8629 10.011 20.4808 10.1034 20.5557 10.5287Z" fill="#D14D72"/>
<path d="M69.7457 14.3378C69.2401 14.5597 68.3413 15.4658 68.1353 15.9835C67.6298 17.2964 68.2289 18.7202 69.5584 19.3489C70.7006 19.9037 71.562 19.7187 72.6106 18.7017C73.3221 17.9991 73.397 17.8326 73.397 17.019C73.397 15.022 71.4871 13.6351 69.7457 14.3378ZM71.7118 15.8356C72.311 16.4273 72.2174 17.3704 71.4871 17.9621C71.0564 18.3319 70.7755 18.4244 70.4198 18.3319C69.1465 18.0176 68.8656 16.7786 69.858 15.9465C70.5508 15.3733 71.2062 15.3363 71.7118 15.8356Z" fill="#D14D72"/>
<path d="M11.53 15.2629L11.0244 15.7807L12.0917 18.0736C12.6722 19.331 13.2152 20.4405 13.3089 20.5329C13.4025 20.6439 13.6459 20.5514 13.9268 20.2925C14.32 19.9227 14.3574 19.7933 14.1889 19.4235C14.0017 19.0167 14.0579 18.8872 14.6009 18.3325C15.1439 17.7777 15.3311 17.7038 15.818 17.7962C16.2674 17.8702 16.4734 17.7962 16.8104 17.4449L17.2411 17.0011L14.7132 15.8547C13.3276 15.2445 12.1479 14.7267 12.1105 14.7267C12.073 14.7267 11.8109 14.9671 11.53 15.2629ZM13.5336 16.6868C14.3387 17.0936 14.3387 17.0751 13.9455 17.5004C13.4961 17.9996 13.4025 17.9812 13.0467 17.223C12.5786 16.243 12.5973 16.2245 13.5336 16.6868Z" fill="#D14D72"/>
<path d="M27.0716 19.9225C26.5847 20.015 25.6485 20.3478 25.0118 20.6252C20.8175 22.5298 18.6079 26.7458 19.2446 31.535C19.7689 35.4551 21.6601 39.1164 28.607 49.6748C29.1688 50.5439 29.9178 51.6534 30.2361 52.1712C30.9476 53.2436 30.9476 53.2621 29.3186 54.5935C26.7345 56.7385 23.2704 58.6985 19.9374 59.9375C18.9075 60.3073 17.9525 60.7141 17.8402 60.8065C17.7091 60.9175 17.5968 61.2688 17.5968 61.6202C17.5968 62.8406 17.3346 62.8036 27.9891 62.8036C36.9583 62.8036 37.5762 62.7851 38.0631 62.4523C38.4001 62.2489 39.2989 60.9175 40.4599 58.9019C41.4898 57.1268 42.426 55.6105 42.5196 55.5181C42.8379 55.1852 42.7069 54.3346 42.2762 54.0388C41.3025 53.3546 40.9842 53.595 39.5049 56.0358C39.0368 56.8124 38.2503 58.0883 37.726 58.865L36.7898 60.3073L30.8915 60.3628L24.9931 60.3997L27.0528 59.0869C30.9289 56.609 32.3333 55.4256 33.644 53.558C35.1982 51.3021 35.7412 49.342 35.3854 47.1416C35.1607 45.7732 34.2994 43.4618 33.6253 42.4633C33.1384 41.7421 30.4233 37.2488 28.7943 34.5121C27.5022 32.2931 27.2588 31.7014 27.2588 30.6289C27.2588 29.464 27.8018 28.6134 28.8317 28.0771C29.9927 27.5039 30.9851 27.5409 32.0711 28.2251C33.101 28.8723 33.5129 28.9092 33.9436 28.447C34.7113 27.6149 34.1683 26.7458 32.3894 25.9322C29.8241 24.7487 26.6034 26.0061 25.4425 28.6689C24.4875 30.8693 25.4425 33.9943 28.607 38.913C29.8241 40.7991 31.2847 43.2214 32.1086 44.7192C32.8576 46.106 32.9886 46.5313 33.0823 47.6963C33.1572 48.7133 33.101 49.305 32.8763 50.0077C32.689 50.5439 32.4831 50.9692 32.4269 50.9692C32.2771 50.9692 27.8018 44.1275 25.9855 41.1319C21.9035 34.3641 20.7238 30.37 21.866 27.0971C22.7461 24.5453 25.1055 22.5668 27.7644 22.1045C29.1126 21.8826 29.6369 21.9381 32.5205 22.6222C32.7639 22.6777 33.0635 22.5668 33.307 22.3264C34.5241 21.1245 32.8014 19.978 29.4871 19.8116C28.6632 19.7746 27.5771 19.8116 27.0716 19.9225Z" fill="#D14D72"/>
<path d="M53.1747 19.8295C50.7405 20.1993 49.4672 20.939 49.6919 21.845C49.8979 22.6217 50.5345 22.7881 51.9014 22.3998C55.2906 21.4382 58.7173 22.6032 60.5711 25.3584C61.5073 26.7637 61.8631 28.0026 61.8444 29.8887C61.8444 31.2201 61.732 31.7748 61.1328 33.4945C60.3651 35.7134 59.2603 37.9878 57.7998 40.4287C56.1707 43.1654 51.0775 50.9687 50.9277 50.9687C50.572 50.9687 50.2724 49.6558 50.2724 48.1765C50.2724 46.6972 50.3285 46.4938 51.0588 45.033C51.4895 44.1824 52.819 41.8895 54.0361 39.9664C57.3691 34.5855 58.2679 32.6069 58.2866 30.4434C58.3054 27.7807 55.4404 25.2289 52.7066 25.5063C50.1787 25.7652 48.2688 27.4664 49.3923 28.4649C49.8791 28.8902 50.3847 28.8532 51.0963 28.317C52.8564 27.0411 55.4404 27.8732 55.9835 29.9072C56.3954 31.405 56.152 31.9412 51.9576 38.8569C48.9991 43.7016 48.6058 44.4598 48.2501 45.9021C47.576 48.5463 47.7071 49.9331 48.8493 52.1521L49.5983 53.6129L49.0927 54.371C48.8118 54.7963 48.0441 55.9983 47.3887 57.0707C46.7334 58.1432 45.8907 59.5116 45.4975 60.1218C44.6923 61.3607 44.58 62.0449 45.0856 62.5072C45.4039 62.7845 46.3214 62.803 55.3281 62.766L65.2148 62.7106L65.6081 62.1928C65.9638 61.712 65.9638 61.6381 65.7017 61.1758C65.4957 60.7875 65.065 60.5471 63.9416 60.1773C61.9005 59.4746 58.5301 57.8474 56.8635 56.7194C54.7476 55.3141 52.613 53.5574 52.613 53.2431C52.613 53.0766 53.1373 52.1521 53.7739 51.1721C54.6727 49.7852 58.2305 44.2564 59.6723 41.9819C61.2826 39.4671 63.1551 35.5655 63.6981 33.5684C64.185 31.7563 64.2786 28.4464 63.8854 27.2075C62.7993 23.9345 60.8145 21.6971 57.9121 20.4952C56.5639 19.922 54.4855 19.6446 53.1747 19.8295ZM56.0209 58.9384L58.2117 60.3067L53.2122 60.3992C50.4596 60.4546 48.1752 60.4361 48.1565 60.3437C48.1003 60.2327 48.9616 58.7719 50.6843 56.0907L51.1337 55.388L52.4819 56.479C53.2309 57.0707 54.8225 58.1802 56.0209 58.9384Z" fill="#D14D72"/>
<path d="M77.2545 20.9765C77.1983 21.0689 76.2246 21.6976 75.1011 22.4003C72.9478 23.6947 72.9852 23.6577 73.547 24.5083C73.6968 24.7117 73.8653 24.6747 74.4458 24.3419L75.176 23.9166L75.9437 24.6932C76.88 25.6177 77.5728 25.6917 78.4342 24.9706C79.2393 24.3049 79.2206 23.5098 78.3405 22.1044C77.6477 20.958 77.423 20.7176 77.2545 20.9765ZM77.7975 23.2509C78.0597 24.083 77.0111 24.4713 76.5055 23.7501C76.2246 23.3618 76.2433 23.3063 76.7302 22.9365C77.2732 22.4927 77.5915 22.5852 77.7975 23.2509Z" fill="#D14D72"/>
<path d="M5.61303 22.4744C5.51941 22.6778 5.42578 22.9182 5.42578 23.0106C5.42578 23.1955 9.41419 25.8213 9.67634 25.8213C9.76996 25.8213 10.2006 25.285 10.6313 24.6194L11.4178 23.3989L10.9496 23.1955C10.6875 23.0846 10.4628 23.0291 10.4253 23.0661C10.3879 23.1031 10.2006 23.4174 9.99466 23.7318L9.62016 24.3235L7.95365 23.2325C7.0174 22.6223 6.17478 22.1231 6.0437 22.1231C5.91263 22.1231 5.72538 22.2895 5.61303 22.4744Z" fill="#D14D72"/>
<path d="M3.38485 32.4225C1.54981 39.2273 1.66216 46.8456 3.66572 53.6689C6.23103 62.4337 12.1294 70.311 19.9938 75.4515C25.0121 78.7244 30.124 80.6475 36.322 81.5906C39.112 82.0159 44.9167 82.0344 47.7442 81.6091C57.4998 80.1483 66.2818 75.3036 72.5359 67.9071C74.7455 65.2813 75.9813 63.4507 77.4232 60.6586C79.5765 56.5165 80.5877 53.484 81.5426 48.1955C81.8422 46.4758 81.992 42.3893 81.8235 40.0594C81.655 37.6 80.9247 33.2546 80.5315 32.2376C80.3442 31.7753 80.2693 31.7383 79.202 31.7383C78.5841 31.7383 78.0785 31.7938 78.0785 31.8493C78.0785 31.9048 78.247 32.6259 78.4717 33.458C79.5203 37.4891 79.8574 42.981 79.3144 47.234C78.247 55.3886 74.5957 62.8035 68.7535 68.6467C56.1517 81.2577 36.3781 83.3472 21.3233 73.6209C10.0135 66.3169 3.4223 53.1696 4.45217 39.9854C4.65814 37.3597 5.33224 33.569 5.78164 32.4225C5.89399 32.1267 5.98761 31.8678 5.98761 31.8123C5.98761 31.7753 5.44459 31.7383 4.77049 31.7383H3.5721L3.38485 32.4225Z" fill="#D14D72"/>
<path d="M44.9727 54.0568C44.7667 54.2417 43.662 55.9984 42.5197 57.9769C40.3851 61.6567 40.254 62.0265 40.9656 62.5627C41.5273 63.0065 42.2576 62.8586 42.7444 62.1929C43.4747 61.2129 46.995 55.0738 46.995 54.7779C46.995 54.3711 46.246 53.7424 45.7592 53.7424C45.5345 53.7424 45.1787 53.8904 44.9727 54.0568Z" fill="#D14D72"/>
<path d="M41.134 64.4858C40.7782 64.6892 40.2539 65.5952 40.2539 66.0205C40.2539 66.1685 40.4786 66.5383 40.7408 66.8526L41.2089 67.4074L40.8157 67.8327C40.2539 68.4429 40.179 68.9791 40.5535 69.6263C41.1527 70.6433 42.3511 70.7543 43.0626 69.8667C43.5869 69.2195 43.5308 68.4429 42.9503 67.8512L42.4822 67.3889L42.9503 66.8896C43.6431 66.187 43.6057 65.3733 42.8567 64.7631C42.2575 64.2639 41.6957 64.1714 41.134 64.4858Z" fill="#D14D72"/>
</svg>
