<svg width="124" height="127" viewBox="0 0 124 127" fill="none" xmlns="http://www.w3.org/2000/svg">
<g opacity="0.21">
<mask id="mask0_4818_49503" style="mask-type:luminance" maskUnits="userSpaceOnUse" x="27" y="103" width="70" height="10">
<path d="M96.4839 103.18H27.0166V112.381H96.4839V103.18Z" fill="white"/>
</mask>
<g mask="url(#mask0_4818_49503)">
<path d="M96.4781 107.778C96.4781 105.236 80.9281 103.18 61.7503 103.18C42.5724 103.18 27.0166 105.236 27.0166 107.778C27.0166 110.319 42.5665 112.381 61.7503 112.381C80.934 112.381 96.4781 110.319 96.4781 107.778Z" fill="black"/>
</g>
</g>
<path d="M74.816 108.916H74.6526C73.2044 108.883 71.7977 108.442 70.6048 107.648C70.297 107.414 70.0513 107.113 69.888 106.769C69.7247 106.425 69.6485 106.049 69.6657 105.671L70.039 97.6014C68.8725 98.1931 67.7059 98.8354 66.5394 99.506C65.2998 100.233 63.9018 100.671 62.4565 100.785C62.2161 100.808 61.9748 100.819 61.7332 100.819C61.4999 100.819 61.2666 100.819 61.0391 100.791C59.5793 100.681 58.1666 100.241 56.9154 99.506C56.0055 98.9763 55.0898 98.4692 54.1799 97.9846L54.5357 105.671C54.5515 106.048 54.4746 106.424 54.3115 106.768C54.1483 107.112 53.9033 107.413 53.5966 107.648C52.3915 108.444 50.9731 108.885 49.5137 108.916H49.4146C48.7921 108.915 48.1933 108.686 47.7387 108.275C47.2841 107.864 47.0076 107.302 46.9649 106.702C46.9427 106.39 46.9842 106.078 47.0872 105.782C47.1901 105.487 47.3525 105.214 47.5648 104.978C47.7772 104.743 48.0355 104.551 48.3249 104.413C48.6143 104.274 48.9291 104.192 49.2513 104.172L49.5721 104.143L49.1755 95.5559C47.3826 94.7812 45.5464 94.1039 43.6752 93.5274C26.3988 88.27 15.7891 75.6423 15.2934 59.7519V59.3011C12.7386 58.1347 10.6914 57.2331 9.5015 56.7147C8.10762 57.8669 6.46896 58.7094 4.70119 59.1828C4.49932 59.2339 4.29161 59.2604 4.08293 59.2617C3.56878 59.2609 3.06778 59.1047 2.65025 58.8148C2.23273 58.525 1.91963 58.1161 1.75492 57.6455C1.59021 57.175 1.58216 56.6665 1.73189 56.1913C1.88161 55.7161 2.18161 55.2981 2.58976 54.9961C2.14916 54.7843 1.78459 54.4495 1.54334 54.0351C1.30208 53.6207 1.19528 53.1459 1.23677 52.6722C1.27827 52.1984 1.46614 51.7476 1.77604 51.3783C2.08593 51.009 2.50355 50.7381 2.97472 50.6009C2.8399 50.0372 2.92505 49.4454 3.21386 48.9386C3.37409 48.6671 3.58838 48.429 3.84437 48.238C4.10035 48.047 4.39296 47.9068 4.70531 47.8256C5.01765 47.7444 5.34355 47.7238 5.66419 47.7649C5.98484 47.806 6.29388 47.9081 6.57348 48.0652C6.85345 48.223 7.15675 48.3807 7.39006 48.5385C7.41408 47.9746 7.64493 47.4373 8.04135 47.0227C8.43777 46.6081 8.97391 46.3433 9.5539 46.2755C10.1339 46.2078 10.7199 46.3415 11.2072 46.6529C11.6945 46.9642 12.0512 47.4329 12.2137 47.975C12.6055 49.5113 12.5612 51.1211 12.0854 52.6351C12.9486 53.007 14.1035 53.5197 15.48 54.1396C16.6815 39.5171 22.0593 30.9746 32.7214 26.6639C32.8603 26.4873 33.0515 26.3556 33.2697 26.2864C34.1329 25.999 35.0545 25.7229 36.0111 25.4355C36.1185 24.8117 36.3987 24.2276 36.8218 23.7451C38.4783 21.7672 42.1412 20.7304 44.9059 20.7304C47.1515 20.7304 48.878 21.384 49.8112 22.5505C58.2526 21.4371 66.8165 21.5111 75.2359 22.7702C76.07 21.4291 77.8081 20.6797 80.182 20.6797C83.1625 20.6797 87.1404 21.9701 88.6394 24.1226C89.0352 24.6661 89.2526 25.312 89.2635 25.9765C89.5902 26.0779 89.911 26.1793 90.2259 26.2864C90.446 26.358 90.6389 26.4914 90.78 26.6696C101.366 30.9577 106.732 39.41 108.016 53.8466C109.351 53.2831 110.489 52.8436 111.404 52.4998C110.955 51.0336 110.913 49.4789 111.282 47.9919C111.436 47.5026 111.749 47.0741 112.174 46.7697C112.599 46.4653 113.115 46.3011 113.644 46.3015C113.873 46.3006 114.101 46.3309 114.321 46.3916C114.816 46.5293 115.255 46.8138 115.574 47.2051C115.893 47.5964 116.077 48.0746 116.1 48.5723C116.362 48.4089 116.636 48.2511 116.922 48.0934C117.333 47.8616 117.805 47.7499 118.28 47.7717C118.755 47.7935 119.214 47.9478 119.6 48.2161C119.986 48.4844 120.284 48.8551 120.456 49.2833C120.629 49.7115 120.67 50.179 120.573 50.6291C120.897 50.7261 121.196 50.8855 121.454 51.0976C121.712 51.3097 121.922 51.5701 122.072 51.8631C122.352 52.4266 122.391 53.0737 122.182 53.665C121.972 54.2562 121.531 54.7444 120.953 55.0243C121.408 55.3555 121.729 55.8293 121.863 56.3646C121.996 56.8999 121.932 57.4633 121.683 57.9582C121.433 58.4531 121.013 58.8487 120.495 59.0773C119.976 59.3059 119.392 59.3531 118.841 59.211C117.041 58.7259 115.375 57.8597 113.965 56.6753C112.798 57.1035 110.78 57.8755 108.255 58.9743C108.255 59.0983 108.255 59.2279 108.255 59.3518C107.981 75.4451 97.3651 88.2419 79.8554 93.5555C78.3097 94.0289 76.7057 94.6036 75.0901 95.2742L74.6585 104.16L74.9793 104.189C75.6305 104.209 76.2465 104.479 76.6917 104.939C77.1369 105.399 77.3748 106.011 77.3532 106.64C77.3315 107.269 77.052 107.864 76.5762 108.294C76.1004 108.724 75.4672 108.954 74.816 108.933" fill="white"/>
<path d="M80.1824 21.818C84.0728 21.818 89.0364 24.1171 87.9341 26.7373C88.5873 26.9345 89.2289 27.1374 89.853 27.3458L89.6139 27.4191C99.9727 31.3353 105.916 39.4101 106.978 55.5146C109.649 54.3876 111.726 53.5762 112.898 53.1536C112.22 51.6278 112.054 49.9347 112.426 48.3132C112.503 48.0553 112.664 47.8285 112.886 47.6669C113.108 47.5053 113.378 47.4177 113.656 47.4173C113.775 47.4156 113.892 47.4308 114.006 47.4624C114.332 47.5517 114.608 47.7617 114.774 48.0467C114.94 48.3317 114.983 48.6685 114.893 48.9838C114.76 49.598 114.75 50.2311 114.864 50.8489C115.686 50.1676 116.577 49.5673 117.523 49.057C117.669 48.976 117.829 48.9235 117.996 48.9024C118.163 48.8813 118.332 48.8922 118.494 48.9343C118.656 48.9764 118.808 49.049 118.941 49.1479C119.075 49.2468 119.186 49.37 119.27 49.5106C119.354 49.6512 119.408 49.8064 119.43 49.9673C119.452 50.1282 119.441 50.2917 119.397 50.4484C119.354 50.6051 119.278 50.752 119.176 50.8807C119.074 51.0093 118.946 51.1173 118.801 51.1983C118.003 51.6439 117.25 52.1588 116.549 52.7366C117.493 52.4897 118.413 52.1615 119.296 51.7561C119.469 51.674 119.658 51.6315 119.851 51.6322C120.144 51.6236 120.432 51.7129 120.665 51.8852C120.898 52.0574 121.063 52.302 121.131 52.5779C121.2 52.8537 121.168 53.1439 121.041 53.3996C120.914 53.6553 120.699 53.861 120.434 53.9819C119.637 54.3602 118.815 54.6859 117.972 54.9567C118.557 55.2565 119.171 55.5018 119.804 55.6893C120.11 55.7598 120.379 55.9373 120.558 56.1877C120.738 56.4381 120.815 56.7436 120.775 57.0456C120.735 57.3476 120.581 57.6247 120.343 57.8237C120.104 58.0227 119.798 58.1295 119.483 58.1236C119.375 58.1243 119.267 58.111 119.162 58.0841C117.317 57.5878 115.636 56.6363 114.286 55.323C113.225 55.7006 110.6 56.6697 107.1 58.2137C107.1 58.5687 107.1 58.9293 107.1 59.2843C106.797 77.0849 94.0117 88.0222 79.5233 92.4399C77.6337 93.0245 75.7781 93.7073 73.9648 94.4854L73.4806 105.034C73.9535 105.189 74.446 105.282 74.9447 105.31C75.1124 105.316 75.2774 105.353 75.4302 105.42C75.5829 105.487 75.7205 105.583 75.8351 105.701C75.9496 105.82 76.0389 105.959 76.0978 106.111C76.1567 106.263 76.184 106.424 76.1783 106.586C76.1725 106.748 76.1338 106.908 76.0643 107.055C75.9948 107.203 75.8959 107.336 75.7732 107.447C75.6505 107.557 75.5065 107.643 75.3493 107.7C75.1921 107.757 75.0249 107.784 74.8572 107.778H74.7755C73.562 107.753 72.3808 107.395 71.3692 106.747C71.2095 106.625 71.0824 106.467 70.9982 106.288C70.914 106.109 70.8752 105.912 70.8851 105.716L71.3459 95.68C69.5261 96.5534 67.7471 97.5113 66.0031 98.5256C64.9151 99.1626 63.6895 99.5482 62.4219 99.6526C62.2119 99.6526 62.0019 99.6526 61.7919 99.6526C61.582 99.6526 61.3895 99.6526 61.2087 99.6526C59.9283 99.5569 58.6893 99.1708 57.5924 98.5256C56.0837 97.6466 54.5458 96.8164 52.9787 96.035L53.4279 105.716C53.4371 105.913 53.3974 106.109 53.3122 106.289C53.227 106.468 53.0986 106.625 52.9379 106.747C51.9295 107.397 50.7496 107.755 49.5375 107.778H49.415C49.2472 107.783 49.0801 107.756 48.923 107.699C48.766 107.642 48.6222 107.555 48.4998 107.445C48.2526 107.221 48.1076 106.911 48.0968 106.583C48.086 106.256 48.2102 105.938 48.442 105.699C48.6739 105.461 48.9945 105.32 49.3333 105.31C49.8318 105.281 50.3241 105.188 50.7973 105.034L50.3249 94.8066C48.2782 93.8961 46.1766 93.1058 44.0314 92.4399C28.4173 87.6897 16.9619 76.234 16.4486 59.7182C16.4486 59.3407 16.4486 58.9575 16.4486 58.5912C12.9957 57.0078 10.3534 55.8527 9.23941 55.3737C7.89113 56.6675 6.22253 57.6064 4.39244 58.101C4.28781 58.1279 4.17992 58.1412 4.07164 58.1405C3.75658 58.1464 3.45038 58.0396 3.21188 57.8406C2.97339 57.6416 2.81945 57.3645 2.77965 57.0625C2.73985 56.7605 2.81701 56.455 2.99628 56.2046C3.17556 55.9542 3.4443 55.7767 3.75085 55.7062C4.38722 55.5223 5.00277 55.2769 5.58814 54.9736C4.73337 54.7102 3.89912 54.3882 3.09175 54.0101C2.82616 53.8892 2.6118 53.6835 2.48475 53.4278C2.3577 53.1721 2.32571 52.8819 2.39418 52.606C2.46265 52.3302 2.6274 52.0856 2.86068 51.9133C3.09396 51.7411 3.38154 51.6517 3.67502 51.6603C3.87692 51.6559 4.07696 51.6984 4.25829 51.7843C5.14178 52.1944 6.0611 52.5281 7.00549 52.7817C6.294 52.182 5.52443 51.6499 4.70741 51.1926C4.41349 51.029 4.1989 50.7593 4.11085 50.4428C4.02279 50.1263 4.06849 49.7889 4.23787 49.505C4.40726 49.2211 4.68647 49.0137 5.01408 48.9287C5.34168 48.8436 5.69085 48.8877 5.98477 49.0514C6.93088 49.5617 7.82186 50.1619 8.64447 50.8433C8.76391 50.2288 8.76391 49.5982 8.64447 48.9838C8.59742 48.8276 8.58292 48.664 8.60182 48.5025C8.62071 48.3409 8.67264 48.1845 8.75456 48.0425C8.83649 47.9004 8.9468 47.7755 9.07909 47.6749C9.21138 47.5744 9.36302 47.5002 9.52521 47.4567C9.63893 47.4251 9.75685 47.4099 9.87517 47.4116C10.1533 47.4112 10.424 47.4984 10.6461 47.6601C10.8682 47.8218 11.0297 48.0492 11.1059 48.3076C11.4877 49.9527 11.314 51.6728 10.6101 53.2156C11.7416 53.7058 13.8414 54.6299 16.5303 55.8527C17.5277 39.5115 23.4828 31.3691 33.8709 27.4247L33.7717 27.3853L33.655 27.3515C34.7905 26.9758 35.9726 26.6152 37.2013 26.2696C36.6589 23.824 41.2084 21.8575 44.9063 21.8575C46.8894 21.8575 48.6217 22.421 49.1992 23.7733C58.0773 22.5233 67.1021 22.6069 75.9537 24.0213C76.3678 22.4491 78.1235 21.8068 80.1824 21.8068M80.1824 19.5528C77.7793 19.5528 75.8604 20.2741 74.7113 21.5532C66.6161 20.3968 58.3948 20.321 50.2782 21.3278C49.0708 20.2008 47.2102 19.5754 44.9063 19.5754C41.955 19.5754 37.9071 20.6516 35.9065 23.007C35.5247 23.4565 35.2285 23.9678 35.0316 24.5171C34.2908 24.7369 33.5734 24.9623 32.891 25.1877C32.5693 25.2957 32.275 25.4686 32.0277 25.6948C26.8949 27.7121 22.5642 31.2622 19.6683 35.8263C16.9152 40.1483 15.2004 45.6028 14.4188 52.4323L13.4214 51.9872C13.7213 50.5713 13.6934 49.1089 13.3398 47.7047C13.1194 46.972 12.6593 46.3279 12.0285 45.8688C11.3977 45.4097 10.63 45.1602 9.84017 45.1577C9.50327 45.1585 9.16793 45.2021 8.84278 45.2873C7.94311 45.5356 7.1767 46.1085 6.70219 46.8876C5.88842 46.5631 4.9804 46.5351 4.14684 46.8087C3.31329 47.0823 2.6109 47.639 2.17019 48.3752C1.89431 48.8346 1.73258 49.3497 1.69774 49.8797C1.2553 50.1483 0.878131 50.506 0.592045 50.9285C0.30596 51.3509 0.117707 51.8281 0.0401665 52.3273C-0.0373738 52.8265 -0.00237118 53.336 0.142779 53.821C0.287929 54.3059 0.539802 54.7549 0.881163 55.1371C0.565246 55.6714 0.400256 56.2765 0.402729 56.8919C0.405203 57.5072 0.575051 58.1111 0.895254 58.6431C1.21546 59.175 1.67476 59.6163 2.22713 59.9226C2.77951 60.229 3.40554 60.3898 4.04248 60.3888C4.34944 60.3877 4.65508 60.3499 4.95238 60.2761C6.63838 59.8093 8.2204 59.0451 9.61853 58.0221C10.7151 58.5011 12.2549 59.1829 14.0805 60.0112C14.693 76.2904 25.5884 89.2112 43.279 94.5925C44.8772 95.0768 46.4483 95.6411 47.986 96.2829L48.3068 103.146C47.4763 103.395 46.7655 103.923 46.303 104.634C45.8404 105.345 45.6566 106.193 45.7849 107.023C45.9132 107.854 46.345 108.613 47.0023 109.163C47.6596 109.713 48.4989 110.017 49.3683 110.021H49.6191C51.2934 109.966 52.915 109.442 54.2853 108.511C54.7387 108.164 55.1004 107.717 55.3407 107.209C55.581 106.701 55.6931 106.144 55.6676 105.586L55.411 99.9512C55.6968 100.109 55.9943 100.272 56.2626 100.441C57.6784 101.271 59.2773 101.765 60.9287 101.884C61.2087 101.884 61.4653 101.918 61.7161 101.918C61.9669 101.918 62.2411 101.918 62.5444 101.878C64.1712 101.751 65.7449 101.259 67.1405 100.441C67.6713 100.132 68.2021 99.8329 68.7328 99.5399L68.4529 105.58C68.4276 106.139 68.5404 106.694 68.7818 107.202C69.0232 107.71 69.3863 108.154 69.8411 108.499C71.2192 109.441 72.8547 109.969 74.5422 110.015H74.7813C75.7032 110.013 76.59 109.673 77.2632 109.065C77.9363 108.456 78.3459 107.624 78.4093 106.736C78.4629 105.946 78.2394 105.161 77.7748 104.509C77.3102 103.857 76.6317 103.375 75.8487 103.141L76.1812 95.9787C77.5344 95.4152 78.8467 94.9756 80.1591 94.5699C98.0363 89.1492 108.932 76.1101 109.375 59.6337C111.16 58.873 112.641 58.2926 113.697 57.8925C115.13 58.9618 116.761 59.7557 118.503 60.231C118.803 60.3045 119.11 60.3423 119.419 60.3437C120.052 60.3462 120.675 60.1888 121.226 59.8872C121.777 59.5855 122.236 59.1501 122.559 58.6239C122.882 58.0978 123.057 57.4993 123.067 56.8877C123.077 56.2761 122.921 55.6726 122.615 55.1371C123.072 54.6188 123.364 53.9838 123.455 53.3087C123.546 52.6337 123.433 51.9476 123.129 51.3335C122.828 50.7391 122.361 50.2376 121.781 49.8854C121.744 49.3549 121.58 48.84 121.303 48.3808C120.983 47.8452 120.524 47.4002 119.97 47.0906C119.416 46.781 118.787 46.6177 118.147 46.6171C117.677 46.6179 117.211 46.7078 116.777 46.882C116.457 46.3537 116 45.9155 115.45 45.611C114.9 45.3065 114.278 45.1463 113.645 45.1464C112.855 45.148 112.086 45.3972 111.455 45.8564C110.824 46.3157 110.365 46.9602 110.145 47.6934C109.803 49.0351 109.763 50.4321 110.028 51.7899L109.031 52.1844C108.261 45.4225 106.529 39.9905 103.781 35.6967C100.877 31.1964 96.5733 27.6993 91.4862 25.7061C91.2391 25.4754 90.9423 25.3003 90.6171 25.1933L90.3663 25.1144C90.2292 24.5284 89.9799 23.9723 89.6314 23.4747C87.8466 20.9165 83.437 19.5303 80.1941 19.5303" fill="white"/>
<path d="M93.6847 64.9131C93.4061 64.9121 93.1355 64.8234 92.9136 64.6606C92.6918 64.4977 92.5308 64.2696 92.4551 64.0106C92.3793 63.7516 92.3929 63.4757 92.4937 63.2248C92.5945 62.9739 92.7772 62.7615 93.014 62.6198C99.634 58.686 106.642 55.3979 113.936 52.8038C114.257 52.6969 114.609 52.7177 114.914 52.8614C115.219 53.0051 115.453 53.26 115.563 53.5701C115.674 53.8802 115.652 54.2201 115.504 54.5149C115.355 54.8098 115.091 55.0354 114.77 55.1423C107.659 57.6868 100.822 60.895 94.3555 64.7216C94.1541 64.8425 93.9219 64.9069 93.6847 64.9075" fill="#133441"/>
<path d="M119.454 58.1239C119.345 58.1246 119.237 58.1113 119.133 58.0844C118.975 58.045 115.219 57.0758 113.522 54.3823C112.341 52.5851 111.941 50.4108 112.408 48.3305C112.513 48.0294 112.734 47.7788 113.025 47.6306C113.316 47.4823 113.654 47.4476 113.971 47.5336C114.288 47.6197 114.558 47.8199 114.726 48.093C114.894 48.3661 114.948 48.6911 114.875 49.001C114.594 50.4186 114.891 51.8861 115.703 53.0976C116.87 54.912 119.739 55.6783 119.786 55.6896C120.093 55.7601 120.361 55.9376 120.541 56.188C120.72 56.4384 120.797 56.7439 120.757 57.0459C120.717 57.3479 120.563 57.625 120.325 57.824C120.086 58.023 119.78 58.1298 119.465 58.1239" fill="#133441"/>
<path d="M115.61 55.374C115.183 55.4165 114.753 55.3372 114.373 55.1459C113.992 54.9546 113.678 54.6597 113.469 54.2978C112.478 52.3876 115.12 50.4041 117.511 49.0743C117.657 48.9932 117.818 48.9407 117.984 48.9196C118.151 48.8986 118.32 48.9094 118.482 48.9515C118.644 48.9937 118.796 49.0662 118.93 49.1651C119.063 49.264 119.174 49.3873 119.258 49.5279C119.342 49.6685 119.397 49.8236 119.418 49.9845C119.44 50.1454 119.429 50.3089 119.385 50.4656C119.342 50.6223 119.267 50.7692 119.164 50.8979C119.062 51.0265 118.934 51.1345 118.789 51.2155C117.992 51.6612 117.238 52.1761 116.537 52.7538C117.485 52.5029 118.406 52.1691 119.29 51.7565C119.6 51.6137 119.955 51.5956 120.278 51.706C120.602 51.8164 120.866 52.0464 121.014 52.3453C121.162 52.6442 121.181 52.9875 121.066 53.2998C120.952 53.6121 120.714 53.8677 120.404 54.0104C118.847 54.7373 117.033 55.4022 115.61 55.4022" fill="#133441"/>
<path d="M29.8111 64.9131C29.6075 64.9086 29.4078 64.8584 29.2278 64.7665C18.8981 59.4698 8.73171 55.1365 8.62672 55.1365C8.35308 54.9834 8.14762 54.738 8.04977 54.4474C7.95193 54.1569 7.96859 53.8417 8.09657 53.5623C8.22454 53.2829 8.45482 53.059 8.74319 52.9335C9.03157 52.8081 9.35774 52.7899 9.65911 52.8826C9.75827 52.922 20.018 57.2778 30.4118 62.6197C30.6625 62.7491 30.8616 62.9553 30.9779 63.2058C31.0942 63.4564 31.1211 63.7371 31.0543 64.0041C30.9876 64.271 30.831 64.5089 30.6092 64.6806C30.3873 64.8523 30.1127 64.9479 29.8286 64.9525" fill="#133441"/>
<path d="M4.04197 58.1231C3.72691 58.129 3.4207 58.0222 3.18221 57.8232C2.94372 57.6242 2.78978 57.3471 2.74998 57.0451C2.71018 56.7431 2.78733 56.4376 2.96661 56.1872C3.14588 55.9368 3.41462 55.7593 3.72117 55.6888C3.72117 55.6888 6.63752 54.9224 7.80405 53.0967C8.60664 51.8837 8.9046 50.4223 8.63813 49.0058C8.59217 48.8497 8.5785 48.6863 8.59788 48.5251C8.61727 48.3639 8.66935 48.2079 8.75113 48.0661C8.83291 47.9243 8.94281 47.7994 9.07454 47.6987C9.20626 47.5979 9.35725 47.5232 9.51886 47.4788C9.68048 47.4344 9.84957 47.4212 10.0165 47.4399C10.1834 47.4586 10.3448 47.5089 10.4916 47.5879C10.6384 47.667 10.7676 47.7731 10.8719 47.9004C10.9762 48.0276 11.0536 48.1735 11.0995 48.3296C11.5683 50.4092 11.1702 52.5835 9.99131 54.3815C8.294 57.075 4.53775 58.0442 4.38026 58.0836C4.27563 58.1105 4.16774 58.1238 4.05947 58.1231" fill="#133441"/>
<path d="M7.88611 55.3741C6.46293 55.3741 4.64897 54.7092 3.09164 53.9823C2.78226 53.8396 2.54423 53.584 2.42992 53.2717C2.31561 52.9594 2.33439 52.6161 2.48212 52.3172C2.62986 52.0183 2.89444 51.7884 3.21767 51.6779C3.5409 51.5675 3.8963 51.5856 4.20568 51.7284C5.08918 52.1384 6.00849 52.4722 6.95288 52.7257C6.2555 52.1483 5.50369 51.6351 4.70729 51.193C4.41338 51.0294 4.19879 50.7597 4.11074 50.4432C4.02268 50.1267 4.06837 49.7893 4.23776 49.5054C4.40715 49.2215 4.68636 49.0141 5.01397 48.9291C5.34157 48.844 5.69074 48.8881 5.98465 49.0518C8.37606 50.376 11.0183 52.3651 10.0267 54.2753C9.81793 54.6373 9.50388 54.9322 9.12341 55.1235C8.74294 55.3148 8.31276 55.3941 7.88611 55.3516" fill="#133441"/>
<path d="M74.8166 107.778H74.7291C73.5172 107.754 72.3376 107.396 71.3287 106.747C71.1679 106.625 71.0396 106.468 70.9544 106.289C70.8692 106.11 70.8295 105.913 70.8387 105.716L71.5153 91.1611C71.5465 90.8449 71.7022 90.5523 71.9502 90.3437C72.1982 90.1351 72.5197 90.0265 72.8482 90.0402C73.1767 90.054 73.4872 90.189 73.7157 90.4175C73.9441 90.646 74.0731 90.9505 74.0758 91.2682L73.4401 105.034C73.913 105.19 74.4054 105.282 74.9041 105.31C75.0718 105.316 75.2368 105.353 75.3896 105.42C75.5424 105.488 75.68 105.583 75.7945 105.702C75.9091 105.82 75.9983 105.959 76.0572 106.111C76.1161 106.263 76.1435 106.425 76.1377 106.587C76.132 106.749 76.0932 106.908 76.0237 107.056C75.9542 107.203 75.8553 107.336 75.7326 107.447C75.61 107.558 75.4659 107.644 75.3088 107.701C75.1516 107.758 74.9843 107.784 74.8166 107.778Z" fill="#133441"/>
<path d="M49.4145 107.778C49.2468 107.784 49.0796 107.757 48.9226 107.7C48.7656 107.642 48.6218 107.556 48.4994 107.445C48.2521 107.221 48.1072 106.911 48.0964 106.584C48.0855 106.257 48.2097 105.938 48.4416 105.7C48.6735 105.461 48.9941 105.321 49.3329 105.31C49.8314 105.281 50.3237 105.188 50.7969 105.034L50.1553 91.2682C50.1581 90.9505 50.287 90.646 50.5155 90.4175C50.7439 90.189 51.0544 90.054 51.383 90.0402C51.7115 90.0265 52.0329 90.1351 52.281 90.3437C52.529 90.5523 52.6847 90.8449 52.7159 91.1611L53.3924 105.716C53.4016 105.913 53.362 106.11 53.2768 106.289C53.1915 106.468 53.0632 106.625 52.9025 106.747C51.8941 107.397 50.7142 107.755 49.502 107.778H49.4145Z" fill="#133441"/>
<path d="M107.059 59.2839C106.756 77.0844 93.9704 88.0217 79.482 92.4395C74.7424 93.9455 70.2041 95.9882 65.9618 98.5251C64.6926 99.2734 63.2345 99.6693 61.7477 99.6693C60.2608 99.6693 58.8027 99.2734 57.5335 98.5251C53.2886 95.9892 48.7485 93.9465 44.0075 92.4395C28.4168 87.6893 16.9614 76.2336 16.4481 59.7178C16.4014 58.6809 16.4014 57.5934 16.4481 56.5115C17.9354 28.2751 33.882 24.0039 61.7273 24.0039C89.5725 24.0039 105.519 28.3259 107.012 56.5115C107.059 57.4582 107.076 58.371 107.041 59.2839" fill="#ED845A"/>
<path d="M103.909 56.5117C102.533 28.3374 87.7351 24.0098 61.7447 24.0098C35.7542 24.0098 20.9683 28.281 19.586 56.5117C18.6936 74.7462 29.7582 87.3965 45.2498 92.4454C49.6846 93.9643 53.9084 96.0064 57.8251 98.5254C58.9849 99.2781 60.3504 99.68 61.7476 99.68C63.1448 99.68 64.5103 99.2781 65.6701 98.5254C69.5944 96.0067 73.8261 93.9664 78.2687 92.451C92.4421 87.8247 104.866 75.9633 103.933 56.5174" fill="#DD6534"/>
<g style="mix-blend-mode:multiply" opacity="0.43">
<mask id="mask1_4818_49503" style="mask-type:luminance" maskUnits="userSpaceOnUse" x="26" y="39" width="71" height="60">
<path d="M96.5551 39.0273H26.9419V98.4359H96.5551V39.0273Z" fill="white"/>
</mask>
<g mask="url(#mask1_4818_49503)">
<path d="M96.5138 61.5167C95.3765 34.2551 83.1745 39.4223 61.751 39.4223C40.3275 39.4223 28.1255 34.2157 26.9823 61.5167C26.2474 79.1538 35.3697 86.5581 48.1258 91.4435C51.8461 92.9428 55.3402 94.9196 58.5139 97.3207C59.4261 98.0426 60.5689 98.4371 61.7481 98.4371C62.9273 98.4371 64.0701 98.0426 64.9823 97.3207C68.1559 94.9196 71.6501 92.9428 75.3703 91.4435C87.0357 86.9694 97.2954 80.3259 96.5138 61.5167Z" fill="#EDC9B2"/>
</g>
</g>
<g style="mix-blend-mode:multiply" opacity="0.31">
<mask id="mask2_4818_49503" style="mask-type:luminance" maskUnits="userSpaceOnUse" x="22" y="30" width="79" height="64">
<path d="M100.55 30.9297H22.4854V93.4486H100.55V30.9297Z" fill="white"/>
</mask>
<g mask="url(#mask2_4818_49503)">
<path d="M99.4838 47.6031C98.8697 44.6514 97.9554 41.7655 96.7541 38.9874C95.9011 37.0221 94.8273 35.1533 93.5519 33.4145L92.9045 32.5974C92.7003 32.372 92.5195 32.1861 92.3737 32.0339C92.1054 31.7578 91.9363 31.6113 91.8838 31.6113C91.8488 31.6395 91.9538 31.8311 92.1871 32.1748L92.6187 32.7947L93.1728 33.6568C94.2918 35.452 95.248 37.3373 96.0308 39.2917C97.1193 42.0547 97.9508 44.906 98.5155 47.8116C99.1687 51.1386 99.4988 54.5173 99.5013 57.9037C99.5118 59.622 99.4223 61.3396 99.233 63.0483C99.0621 64.7016 98.7934 66.344 98.4281 67.9675C97.7908 70.8481 96.7878 73.6416 95.4417 76.2846C94.477 78.1533 93.3035 79.9144 91.9421 81.5363C91.4755 82.1449 91.0322 82.5619 90.7756 82.8887C90.5189 83.2155 90.3789 83.3902 90.4081 83.4184C90.605 83.3259 90.7844 83.2021 90.9389 83.0521C91.4116 82.6715 91.8578 82.2611 92.2746 81.8237C93.7902 80.2663 95.0847 78.5211 96.1241 76.634C97.5905 73.9683 98.683 71.1259 99.3729 68.1817C99.7675 66.5264 100.06 64.8498 100.248 63.161C100.448 61.4172 100.545 59.6638 100.539 57.9093C100.535 54.4593 100.176 51.0182 99.4663 47.6369" fill="#E6CFC8"/>
<path d="M91.0958 49.6877C90.7222 46.2938 89.9813 42.9472 88.8852 39.7027C88.1128 37.4068 87.0779 35.2012 85.7997 33.1268C85.5606 32.7605 85.3506 32.428 85.1523 32.1463L84.6157 31.4701C84.3357 31.1264 84.1666 30.9404 84.1141 30.9404C84.0791 30.9686 84.1841 31.194 84.4174 31.5997L84.8548 32.3379L85.4089 33.3578C86.5223 35.4611 87.4341 37.6585 88.1328 39.9224C89.1203 43.138 89.7825 46.4386 90.1101 49.7778C90.4946 53.6056 90.5082 57.4597 90.1509 61.2899C89.8039 65.1225 89.0654 68.9125 87.9461 72.6047C86.9601 75.8152 85.6227 78.9149 83.9566 81.8515C82.766 83.9268 81.3672 85.884 79.7804 87.6949C79.2321 88.3711 78.7305 88.8219 78.4214 89.2051C78.1122 89.5882 77.9547 89.7685 77.9839 89.7685C78.2004 89.661 78.3974 89.5202 78.5672 89.3516C79.1068 88.9216 79.6172 88.4586 80.0953 87.9654C81.8312 86.2275 83.3467 84.2962 84.6098 82.2122C86.3898 79.2601 87.8163 76.1219 88.8619 72.8583C90.0447 69.1171 90.8169 65.266 91.1658 61.3688C91.5335 57.474 91.5003 53.5536 91.0666 49.6651" fill="#E6CFC8"/>
<path d="M80.4568 67.443C80.7892 65.5778 81.04 63.662 81.2325 61.7405C81.425 59.819 81.4658 57.8862 81.46 55.9873C81.4541 54.0883 81.3433 52.2232 81.1683 50.4256C80.8471 47.1466 80.2621 43.8967 79.4185 40.7055C78.8239 38.452 78.0777 36.2384 77.1846 34.0789C76.9005 33.2403 76.5086 32.4395 76.0181 31.6953C75.9306 31.7291 76.2456 32.642 76.7705 34.231C77.2954 35.82 78.0187 38.1022 78.6778 40.8858C79.4167 44.0564 79.9311 47.272 80.2176 50.5102C80.3751 52.2852 80.4451 54.1221 80.4626 55.9929C80.4801 57.8637 80.3751 59.7626 80.2176 61.6278C80.0601 63.4929 79.7918 65.4031 79.471 67.2626C79.1502 69.1222 78.7361 70.9028 78.2753 72.6271C77.4308 75.7729 76.3628 78.8587 75.079 81.8626C73.9416 84.4997 72.8393 86.6354 72.0344 88.1117C71.2294 89.588 70.7687 90.4389 70.8678 90.4896C71.4809 89.8342 72.0097 89.1096 72.4426 88.3315C73.6876 86.354 74.7981 84.3005 75.7673 82.1838C77.1536 79.174 78.2983 76.0657 79.1911 72.8863C79.681 71.1451 80.101 69.3194 80.4568 67.4486" fill="#E6CFC8"/>
<path d="M68.4302 36.3384C68.3427 35.9665 68.2144 35.6453 68.1211 35.3635C68.0324 35.1268 67.9292 34.8953 67.812 34.6704C67.6078 34.3324 67.4562 34.1689 67.4095 34.1689C67.3687 34.1971 67.4562 34.4 67.5903 34.7606C67.637 34.9578 67.7245 35.1832 67.7886 35.4593C67.8528 35.7354 67.9344 36.0623 67.9869 36.4285C68.2964 38.4642 68.4911 40.5145 68.5702 42.5705C68.8268 47.6926 68.7802 54.539 68.4885 61.3741C68.1969 68.2092 67.6428 75.0387 67.0304 80.1326C66.4179 85.2266 65.7239 88.5849 65.9047 88.6244C65.9863 88.6244 66.278 87.813 66.6279 86.3704C66.9779 84.9279 67.4212 82.7923 67.7945 80.2397C68.708 74.0009 69.2921 67.7211 69.5443 61.4248C69.8568 55.1287 69.7945 48.8204 69.3576 42.5311C69.2221 40.4442 68.9119 38.3713 68.4302 36.3327" fill="#E6CFC8"/>
<path d="M56.1996 61.7243C55.6475 55.2569 55.4723 48.7647 55.6747 42.2783C55.7529 40.1491 55.9652 38.0265 56.3105 35.9222C56.5788 34.4064 56.8587 33.5612 56.7596 33.5273C56.6779 33.5273 56.258 34.3331 55.8613 35.832C55.351 37.9355 55.0252 40.0768 54.8873 42.2332C54.4973 48.7525 54.585 55.2902 55.1498 61.7975C55.6864 68.8975 56.5963 75.958 57.4828 81.2209C57.9319 83.8524 58.3636 86.0331 58.7194 87.5545C59.0752 89.076 59.3026 89.9099 59.4018 89.9099C59.5826 89.8761 58.9702 86.3768 58.2352 81.1082C57.5003 75.8396 56.6838 68.7904 56.153 61.7243" fill="#E6CFC8"/>
<path d="M54.0813 92.1181L53.4514 91.1546C52.1718 89.1512 51.0563 87.0543 50.1151 84.883C47.712 79.5073 45.5656 71.9227 44.434 64.1804C43.3025 56.4381 43.0634 48.5775 43.8158 42.7679C44.0778 40.4306 44.5859 38.1253 45.3323 35.8877C45.6356 35.0932 45.863 34.4564 46.0672 34.0451C46.2713 33.6338 46.3355 33.3858 46.2947 33.3633C46.248 33.3633 46.0964 33.5605 45.8572 33.9268C45.4914 34.4987 45.1735 35.0979 44.9065 35.7187C43.9954 37.9503 43.3724 40.2819 43.0517 42.6608C42.1126 48.538 42.2176 56.5057 43.4075 64.3157C44.5973 72.1256 46.8138 79.7947 49.4093 85.1647C50.4207 87.3434 51.6536 89.4198 53.0897 91.3631C53.3581 91.7068 53.5914 92.0224 53.813 92.2816L54.3963 92.9183C54.6996 93.2339 54.8804 93.4029 54.9329 93.4029C54.9679 93.3747 54.8396 93.155 54.5771 92.7718L54.0813 92.0731" fill="#E6CFC8"/>
<path d="M48.5587 90.5465L47.8412 90.0394C47.7071 89.938 47.5496 89.8422 47.3921 89.7182L46.9022 89.3294C44.9769 87.8431 43.2576 86.1235 41.7869 84.213C39.7233 81.5045 38.066 78.5281 36.8641 75.3718C36.1677 73.5951 35.5834 71.7792 35.1143 69.9342C34.6403 68.0271 34.2704 66.0974 34.0061 64.1528C33.0083 56.9583 33.2884 49.6521 34.8343 42.5487C35.352 40.2153 36.08 37.93 37.0099 35.7192C37.1907 35.3191 37.3482 34.9641 37.4882 34.6599C37.6282 34.3556 37.7682 34.0964 37.8673 33.8879C38.0715 33.4653 38.1648 33.2286 38.124 33.2061C38.0773 33.2061 37.9198 33.3976 37.6574 33.7695C37.5232 33.9668 37.3482 34.2034 37.1791 34.5021L36.5958 35.5333C35.4997 37.7183 34.6528 40.012 34.0703 42.374C32.3095 49.5506 31.9299 56.9788 32.9504 64.288C33.225 66.2685 33.6145 68.2325 34.1169 70.1708C34.5977 72.053 35.2036 73.9032 35.9309 75.7099C37.2007 78.9338 38.9601 81.9571 41.1511 84.6806C42.7051 86.6019 44.5471 88.2884 46.6164 89.6844L47.1413 90.045C47.3105 90.1521 47.4796 90.2366 47.6313 90.3268L48.4128 90.7494C48.6211 90.8733 48.8444 90.9717 49.0778 91.0424C49.0778 91.0086 48.9028 90.8339 48.4945 90.5522" fill="#E6CFC8"/>
<path d="M38.3914 87.2559C36.3824 86.2817 34.541 85.014 32.932 83.4974C30.6627 81.3556 28.8149 78.8335 27.4785 76.0537C25.9475 72.8529 24.876 69.4651 24.2938 65.9842C23.6609 62.5032 23.4029 58.9681 23.5239 55.4357C23.6363 52.351 24.0266 49.2815 24.6905 46.2622C25.1526 44.1214 25.7367 42.007 26.4403 39.9286C26.9477 38.4184 27.2627 37.5563 27.1752 37.5225C26.6849 38.2207 26.2927 38.9786 26.0086 39.7764C25.1317 41.8151 24.4237 43.9179 23.8914 46.0649C23.1337 49.119 22.6806 52.2362 22.5382 55.3737C22.3732 58.9739 22.6137 62.5808 23.2556 66.1307C23.856 69.7016 24.9794 73.1718 26.5919 76.4369C28.0088 79.3007 29.9786 81.8769 32.3954 84.0271C34.1048 85.5515 36.0793 86.7724 38.2281 87.6334C39.0085 87.9693 39.8327 88.2006 40.6779 88.3209C40.7167 88.3209 40.7401 88.3209 40.7478 88.3209C40.777 88.2251 39.8788 87.9433 38.4148 87.2446" fill="#E6CFC8"/>
</g>
</g>
<g style="mix-blend-mode:multiply">
<mask id="mask3_4818_49503" style="mask-type:luminance" maskUnits="userSpaceOnUse" x="33" y="23" width="57" height="9">
<path d="M89.474 23.7959H33.7485V31.4593H89.474V23.7959Z" fill="white"/>
</mask>
<g mask="url(#mask3_4818_49503)">
<path d="M89.4741 27.5261C81.7457 24.9735 72.3551 23.8184 61.7454 23.8184C51.1358 23.8184 41.4769 24.8777 33.7485 27.4247C40.5844 30.7098 51.06 31.4705 61.5355 31.4705C72.011 31.4705 82.644 30.6647 89.4741 27.5261Z" fill="#EDC9B2"/>
</g>
</g>
<path d="M89.8416 27.3623C71.6179 21.4196 51.8789 21.4196 33.6553 27.3623C41.3836 29.9093 51.1533 30.7433 61.7455 30.7433C72.3377 30.7433 82.1133 29.8924 89.8416 27.3623Z" fill="#F6E2C3"/>
<path d="M84.1142 26.2129C77.9607 24.3422 70.1974 23.3955 61.7517 23.3955C53.3059 23.3955 45.5368 24.3478 39.3833 26.2129C45.5368 28.0837 53.3001 28.7036 61.7517 28.7036C70.2032 28.7036 77.9607 28.0837 84.1142 26.2129Z" fill="#EDCFA1"/>
<path d="M107.059 59.2842C106.756 77.0848 93.9705 88.022 79.4821 92.4398C74.7426 93.9458 70.2043 95.9886 65.9619 98.5255C64.6928 99.2737 63.2347 99.6696 61.7478 99.6696C60.261 99.6696 58.8029 99.2737 57.5337 98.5255C53.2887 95.9895 48.7486 93.9468 44.0077 92.4398C28.4169 87.6896 16.9615 76.2339 16.4482 59.7181C22.3626 63.4089 30.7033 66.3278 40.4848 68.0577C42.57 68.4682 44.5117 69.3877 46.125 70.7286C50.4226 74.1565 55.8218 76.0316 61.3949 76.0316C66.9681 76.0316 72.3673 74.1565 76.6649 70.7286C78.2702 69.3893 80.204 68.4697 82.2818 68.0577C92.4715 66.2545 101.104 63.1779 107.059 59.2842Z" fill="#FCEE21"/>
<g style="mix-blend-mode:multiply">
<mask id="mask4_4818_49503" style="mask-type:luminance" maskUnits="userSpaceOnUse" x="18" y="64" width="88" height="35">
<path d="M105.048 64.001H18.4438V98.7231H105.048V64.001Z" fill="white"/>
</mask>
<g mask="url(#mask4_4818_49503)">
<path d="M79.5529 84.6246C68.29 87.859 66.3302 91.4766 61.7457 91.4766C57.1612 91.4766 55.2481 87.8703 43.9444 84.6246C32.0282 81.1986 22.5384 74.093 18.4438 64.001C20.1937 77.9586 30.6925 87.6675 44.691 91.8711C49.2426 93.2936 53.606 95.2263 57.692 97.6299C58.9135 98.3451 60.3145 98.7232 61.7428 98.7232C63.1711 98.7232 64.5721 98.3451 65.7936 97.6299C69.8796 95.2263 74.2431 93.2936 78.7947 91.8711C91.6849 88.0056 103.17 78.8094 105.042 64.063C100.743 74.6227 90.6467 81.4353 79.5471 84.6246" fill="#E0C8B9"/>
</g>
</g>
<g opacity="0.28">
<mask id="mask5_4818_49503" style="mask-type:luminance" maskUnits="userSpaceOnUse" x="21" y="32" width="79" height="20">
<path d="M99.1032 32.5186H21.6685V51.3672H99.1032V32.5186Z" fill="white"/>
</mask>
<g mask="url(#mask5_4818_49503)">
<g style="mix-blend-mode:soft-light">
<mask id="mask6_4818_49503" style="mask-type:luminance" maskUnits="userSpaceOnUse" x="25" y="32" width="13" height="12">
<path d="M37.75 32.5186H25.1514V43.963H37.75V32.5186Z" fill="white"/>
</mask>
<g mask="url(#mask6_4818_49503)">
<path d="M34.6118 41.8842C31.6021 44.3185 27.7525 44.6678 26.0027 42.6562C24.2529 40.6445 25.2795 37.0213 28.2891 34.604C31.2988 32.1866 35.1484 31.7865 36.8982 33.8263C38.648 35.8662 37.6214 39.4612 34.6118 41.8842Z" fill="white"/>
</g>
</g>
<g style="mix-blend-mode:soft-light">
<mask id="mask7_4818_49503" style="mask-type:luminance" maskUnits="userSpaceOnUse" x="21" y="45" width="6" height="7">
<path d="M26.9354 45.9463H21.6685V51.367H26.9354V45.9463Z" fill="white"/>
</mask>
<g mask="url(#mask7_4818_49503)">
<path d="M26.5912 49.784C26.3178 50.1876 25.9292 50.5061 25.4724 50.7009C25.0156 50.8956 24.5102 50.9584 24.0173 50.8815C23.5244 50.8046 23.0651 50.5914 22.6949 50.2677C22.3248 49.9439 22.0597 49.5235 21.9316 49.0573C21.8036 48.591 21.8181 48.099 21.9735 47.6405C22.1288 47.1821 22.4183 46.777 22.8069 46.4741C23.1956 46.1713 23.6667 45.9837 24.1634 45.9341C24.66 45.8845 25.1609 45.975 25.6055 46.1946C26.2277 46.5454 26.6808 47.12 26.8655 47.7927C27.0502 48.4654 26.9516 49.1814 26.5912 49.784Z" fill="#C2C2C2"/>
</g>
</g>
<g style="mix-blend-mode:soft-light">
<mask id="mask8_4818_49503" style="mask-type:luminance" maskUnits="userSpaceOnUse" x="93" y="35" width="7" height="7">
<path d="M99.1088 35.8096H93.8594V41.2472H99.1088V35.8096Z" fill="white"/>
</mask>
<g mask="url(#mask8_4818_49503)">
<path d="M98.8119 37.4827C98.9718 37.9395 98.9913 38.4313 98.868 38.8986C98.7448 39.3659 98.4841 39.7887 98.1174 40.116C97.7508 40.4432 97.2939 40.6608 96.8019 40.7425C96.31 40.8242 95.8041 40.7665 95.3454 40.5764C94.8866 40.3862 94.4947 40.0718 94.2171 39.6711C93.9394 39.2704 93.7877 38.8005 93.7805 38.3183C93.7733 37.8362 93.9109 37.3623 94.1765 36.954C94.4421 36.5457 94.8244 36.2205 95.2773 36.0177C95.9473 35.7618 96.6949 35.7722 97.357 36.0466C98.0192 36.3211 98.5421 36.8373 98.8119 37.4827Z" fill="#C2C2C2"/>
</g>
</g>
</g>
</g>
<g style="mix-blend-mode:multiply">
<mask id="mask9_4818_49503" style="mask-type:luminance" maskUnits="userSpaceOnUse" x="44" y="24" width="34" height="5">
<path d="M77.197 24.6133H44.6855V28.9747H77.197V24.6133Z" fill="white"/>
</mask>
<g mask="url(#mask9_4818_49503)">
<path d="M49.4741 25.1143C49.5383 25.2664 49.2817 25.5087 48.8267 25.7059C48.2885 25.919 47.7238 26.063 47.1469 26.1342L45.5429 26.3709C45.1113 26.4328 44.7963 26.4779 44.703 26.3258C44.6097 26.1736 44.8255 25.9032 45.2863 25.6552C45.8188 25.3878 46.3949 25.2105 46.9894 25.1312C47.5421 25.0488 48.0989 24.9943 48.6576 24.9678C49.1008 24.9678 49.4216 24.9678 49.4916 25.1143" fill="#F6E2C3"/>
<path d="M55.4813 25.0526C55.8371 25.6161 53.2649 27.0812 52.9091 26.5008C52.5533 25.9204 55.1313 24.4666 55.4813 25.0526Z" fill="#F6E2C3"/>
<path d="M77.1903 25.7286C77.097 26.0554 75.7671 25.8864 74.4489 25.7286C73.1307 25.5708 71.8125 25.3285 71.8184 24.9904C71.8242 24.6523 73.224 24.5227 74.6006 24.7256C75.9771 24.9285 77.2836 25.4187 77.1903 25.7455" fill="#F6E2C3"/>
<path d="M74.9865 28.5062C74.8348 28.8105 73.8199 28.5569 72.91 28.2301C72.0001 27.9033 71.0436 27.4863 71.1311 27.1538C71.2186 26.8214 72.2976 26.9228 73.2658 27.2778C74.2341 27.6328 75.1381 28.2019 75.0156 28.5062" fill="#F6E2C3"/>
<path d="M66.7908 25.7458C66.54 26.3826 63.7636 25.5148 63.9386 24.8611C64.1136 24.2075 67.0474 25.1147 66.7908 25.7458Z" fill="#F6E2C3"/>
<path d="M60.498 27.4815C60.1481 27.4815 59.9498 26.918 59.9614 26.3545C59.9731 25.791 60.2006 25.2275 60.5447 25.2275C60.8888 25.2275 61.0171 25.791 61.0055 26.3545C60.9938 26.918 60.8422 27.442 60.4922 27.4815" fill="#F6E2C3"/>
<path d="M55.6557 28.7321C55.1191 28.2982 56.3731 26.867 56.9039 27.3065C57.4346 27.746 56.1923 29.1716 55.6557 28.7321Z" fill="#F6E2C3"/>
<path d="M47.3917 27.8927C47.0476 27.3292 49.439 26.1177 49.7248 26.7319C50.0106 27.3461 47.7242 28.4843 47.3917 27.8927Z" fill="#F6E2C3"/>
<path d="M66.2253 28.8443C66.0872 28.9066 65.9332 28.9283 65.7824 28.9066C65.6316 28.8849 65.4908 28.8207 65.3775 28.7221C65.2643 28.6235 65.1836 28.4949 65.1456 28.3522C65.1076 28.2096 65.1139 28.0593 65.1638 27.9202C65.3679 27.6497 65.7879 27.7342 66.0737 27.9821C66.3595 28.2301 66.5053 28.6189 66.2487 28.8443" fill="#F6E2C3"/>
</g>
</g>
<path d="M33.3054 41.9057C33.379 43.6897 33.9991 45.4123 35.0871 46.8554C36.1752 48.2985 37.6823 49.397 39.4173 50.0117C41.1523 50.6263 43.0372 50.7295 44.833 50.3081C46.6288 49.8868 48.2547 48.9598 49.5046 47.6447C50.7544 46.3296 51.572 44.6856 51.8536 42.9211C52.1353 41.1567 51.8684 39.3511 51.0866 37.7334C50.3049 36.1156 49.0437 34.7585 47.4627 33.8341C45.8817 32.9096 44.0522 32.4594 42.2061 32.5406C40.9851 32.5906 39.7862 32.8725 38.678 33.3703C37.5697 33.868 36.5739 34.5719 35.7473 35.4416C34.9207 36.3113 34.2796 37.3298 33.8607 38.4389C33.4417 39.5481 33.253 40.7261 33.3054 41.9057Z" fill="white"/>
<path d="M49.007 41.2472C48.9538 40.0217 48.5254 38.8389 47.776 37.8487C47.0266 36.8585 45.99 36.1054 44.7973 35.6846C43.6047 35.2639 42.3096 35.1945 41.0761 35.4852C39.8426 35.7759 38.7261 36.4136 37.8679 37.3177C37.0098 38.2217 36.4486 39.3514 36.2554 40.5638C36.0622 41.7761 36.2457 43.0166 36.7826 44.1281C37.3195 45.2397 38.1857 46.1723 39.2716 46.808C40.3575 47.4437 41.6142 47.7538 42.8826 47.6992C44.5796 47.626 46.1773 46.9057 47.3253 45.6962C48.4734 44.4868 49.0781 42.8868 49.007 41.2472ZM41.8327 40.881C40.8412 41.9685 39.278 42.2108 38.3331 41.4444C37.3882 40.6781 37.4407 39.1229 38.4323 38.0354C39.4238 36.9478 40.987 36.7055 41.9319 37.5C42.8768 38.2946 42.8243 39.8216 41.8269 40.881M46.7555 44.9944C46.5569 45.1455 46.3177 45.2387 46.0662 45.2631C45.8146 45.2876 45.5611 45.2422 45.3352 45.1324C45.1094 45.0226 44.9206 44.8529 44.7911 44.6431C44.6616 44.4334 44.5966 44.1923 44.6038 43.9481C44.611 43.704 44.6901 43.4669 44.8319 43.2646C44.9736 43.0623 45.1721 42.9033 45.404 42.8061C45.636 42.7089 45.8918 42.6777 46.1415 42.7159C46.3912 42.7542 46.6244 42.8604 46.8139 43.0222C47.072 43.2935 47.2103 43.6514 47.1994 44.0198C47.1886 44.3881 47.0293 44.7378 46.7555 44.9944Z" fill="#133441"/>
<path d="M73.3577 41.9057C73.4312 43.6897 74.0513 45.4123 75.1394 46.8554C76.2275 48.2985 77.7345 49.397 79.4696 50.0117C81.2046 50.6263 83.0895 50.7295 84.8853 50.3081C86.6811 49.8868 88.3069 48.9598 89.5568 47.6447C90.8067 46.3296 91.6242 44.6856 91.9059 42.9211C92.1875 41.1567 91.9206 39.3511 91.1389 37.7334C90.3572 36.1156 89.0959 34.7585 87.5149 33.8341C85.934 32.9096 84.1045 32.4594 82.2584 32.5406C81.0373 32.5906 79.8384 32.8725 78.7302 33.3703C77.622 33.868 76.6261 34.5719 75.7995 35.4416C74.973 36.3113 74.3319 37.3298 73.9129 38.4389C73.4939 39.5481 73.3053 40.7261 73.3577 41.9057Z" fill="white"/>
<path d="M89.0768 41.2472C89.0239 40.0226 88.5962 38.8406 87.848 37.8507C87.0998 36.8608 86.0647 36.1074 84.8733 35.6858C83.682 35.2642 82.388 35.1933 81.155 35.4821C79.922 35.7708 78.8053 36.4062 77.946 37.308C77.0867 38.2098 76.5235 39.3375 76.3275 40.5485C76.1315 41.7595 76.3116 42.9995 76.8449 44.1116C77.3783 45.2238 78.2409 46.1582 79.3239 46.7967C80.4069 47.4353 81.6615 47.7493 82.9292 47.6991C83.7714 47.6658 84.5987 47.4724 85.3636 47.1301C86.1284 46.7877 86.816 46.3031 87.3869 45.7039C87.9579 45.1047 88.401 44.4027 88.6909 43.638C88.9809 42.8733 89.112 42.0609 89.0768 41.2472ZM81.9726 40.5203C80.8469 41.4782 79.2662 41.5233 78.438 40.6217C77.6097 39.7202 77.8547 38.2156 78.9863 37.2408C80.1178 36.266 81.6926 36.2322 82.515 37.1338C83.3375 38.0353 83.0983 39.5455 81.9726 40.5147M87.2512 44.769C87.0525 44.9201 86.8134 45.0133 86.5618 45.0377C86.3103 45.0621 86.0567 45.0168 85.8309 44.907C85.605 44.7972 85.4163 44.6274 85.2867 44.4177C85.1572 44.2079 85.0922 43.9669 85.0995 43.7227C85.1067 43.4786 85.1858 43.2415 85.3275 43.0392C85.4692 42.8369 85.6677 42.6779 85.8997 42.5807C86.1316 42.4835 86.3874 42.4522 86.6371 42.4905C86.8869 42.5288 87.1201 42.635 87.3095 42.7968C87.569 43.0674 87.7083 43.4256 87.6974 43.7944C87.6865 44.1632 87.5263 44.5131 87.2512 44.769Z" fill="#133441"/>
<path d="M75.9302 24.145C75.5803 25.7003 78.3624 26.8385 81.5413 27.4302C84.3876 27.9542 87.1056 28.7149 87.9572 26.7596C89.6545 22.725 76.9918 19.4343 75.9535 24.145" fill="#133441"/>
<path d="M37.283 26.5853C38.0529 28.5632 40.7826 27.8757 43.6523 27.4193C46.8486 26.9121 49.6599 25.8472 49.3566 24.2807C48.4467 19.5755 35.6965 22.5113 37.283 26.5853Z" fill="#133441"/>
<path d="M70.3774 47.079C72.553 49.6204 70.4357 54.3593 63.2732 54.3593C56.1106 54.3593 54.355 49.2372 56.1806 47.079C57.2247 45.8394 59.6336 46.4536 63.2732 46.4536C66.9128 46.4536 69.2983 45.8168 70.3774 47.079Z" fill="#AB1700"/>
<path d="M70.0804 50.5845C69.7447 51.2511 69.2288 51.8177 68.5872 52.2243C64.5043 48.4489 60.6256 50.5338 58.4442 52.4102C57.6959 51.9444 57.0914 51.2923 56.6944 50.5225C56.4295 50.0665 56.3012 49.5483 56.3238 49.0258C56.3465 48.5033 56.5192 47.9972 56.8227 47.5642C57.126 47.2261 57.6918 47.0684 58.7766 47.0684C59.0333 47.0684 59.3074 47.0684 59.5991 47.1022H59.6924C59.7074 47.0938 59.7245 47.0893 59.742 47.0893C59.7594 47.0893 59.7765 47.0938 59.7915 47.1022C60.019 47.1022 60.2581 47.1022 60.5148 47.1303C61.3489 47.1811 62.2646 47.2261 63.2853 47.2261C64.306 47.2261 65.2568 47.1811 66.0908 47.1303L66.7616 47.0853H67.0007C67.2924 47.0853 67.584 47.0853 67.8348 47.0853C68.908 47.0853 69.4738 47.2261 69.7771 47.5811C70.1282 48.0002 70.3454 48.5089 70.4024 49.0452C70.4593 49.5815 70.3535 50.1222 70.0979 50.6014" fill="black"/>
<path d="M69.3573 47.5358C69.3573 48.0992 66.7325 48.5895 63.4779 48.5895C60.2233 48.5895 57.5811 48.1218 57.5811 47.5358C57.5811 47.2258 58.3335 47.1188 59.5525 47.1019H59.6458C59.6609 47.0935 59.678 47.089 59.6954 47.089C59.7128 47.089 59.7299 47.0935 59.745 47.1019C59.9725 47.1019 60.2116 47.1019 60.4682 47.13C61.3023 47.1808 62.218 47.2258 63.2388 47.2258C64.2595 47.2258 65.2102 47.1808 66.0443 47.13L66.715 47.085H66.9542C68.4007 47.085 69.3281 47.192 69.3281 47.5358" fill="white"/>
<path d="M68.5865 52.2236C67.7356 52.7903 66.7691 53.1746 65.7518 53.3506C65.6 53.3846 65.4461 53.409 65.291 53.4238C65.1588 53.456 65.0243 53.4786 64.8886 53.4915C64.632 53.4915 64.3578 53.5365 64.072 53.5535C63.8098 53.5678 63.5469 53.5678 63.2846 53.5535C63.034 53.5678 62.7828 53.5678 62.5322 53.5535C62.2755 53.5535 62.0364 53.5027 61.7973 53.4915C61.3773 53.4408 60.9807 53.3619 60.6307 53.2886C60.3537 53.2285 60.081 53.1513 59.8141 53.0576C59.3381 52.896 58.8853 52.6763 58.4668 52.4039C60.6482 50.5163 64.5095 48.4595 68.6099 52.218" fill="#FD6C6C"/>
<g opacity="0.58">
<mask id="mask10_4818_49503" style="mask-type:luminance" maskUnits="userSpaceOnUse" x="31" y="50" width="62" height="5">
<path d="M92.6702 50.7812H31.8003V54.9567H92.6702V50.7812Z" fill="white"/>
</mask>
<g mask="url(#mask10_4818_49503)">
<path d="M92.67 52.8828C92.67 54.0097 90.8619 54.9733 88.628 54.9733C86.394 54.9733 84.5801 54.0097 84.5801 52.8828C84.5801 51.7558 86.394 50.7979 88.628 50.7979C90.8619 50.7979 92.67 51.7332 92.67 52.8828Z" fill="#EE927E"/>
<path d="M39.8902 52.8828C39.8902 54.0097 38.0821 54.9733 35.8482 54.9733C33.6143 54.9733 31.8003 54.0097 31.8003 52.8828C31.8003 51.7558 33.6143 50.7979 35.8482 50.7979C38.0821 50.7979 39.8902 51.7332 39.8902 52.8828Z" fill="#EE927E"/>
</g>
</g>
<path d="M63.2785 80.95C63.2785 80.6577 63.1887 80.3721 63.0205 80.1292C62.8524 79.8863 62.6134 79.697 62.3338 79.5855C62.0542 79.4739 61.7466 79.445 61.4501 79.5024C61.1535 79.5598 60.8812 79.701 60.6677 79.908C60.4542 80.1151 60.3091 80.3787 60.2508 80.6654C60.1925 80.9522 60.2236 81.2492 60.3402 81.5188C60.4567 81.7885 60.6535 82.0187 60.9056 82.1802C61.1576 82.3418 61.4537 82.4274 61.7562 82.4263C61.9566 82.4263 62.155 82.3881 62.3401 82.3138C62.5252 82.2396 62.6932 82.1307 62.8347 81.9936C62.9761 81.8564 63.0881 81.6936 63.1643 81.5145C63.2405 81.3354 63.2793 81.1436 63.2785 80.95Z" fill="#DD6534"/>
<path d="M61.7506 82.4209C61.5651 82.4197 61.3842 82.3656 61.2305 82.2652C61.0768 82.1649 60.9574 82.0228 60.8872 81.8569C60.817 81.6911 60.7993 81.5088 60.8361 81.3332C60.873 81.1576 60.9629 80.9965 61.0945 80.8702C61.226 80.7439 61.3934 80.658 61.5754 80.6235C61.7574 80.5889 61.9459 80.6072 62.1171 80.676C62.2884 80.7449 62.4347 80.8611 62.5376 81.0102C62.6406 81.1593 62.6955 81.3345 62.6955 81.5136C62.6955 81.6333 62.671 81.7517 62.6235 81.8621C62.5759 81.9726 62.5062 82.0728 62.4184 82.1571C62.3306 82.2415 62.2264 82.3082 62.1118 82.3534C61.9972 82.3987 61.8744 82.4216 61.7506 82.4209Z" fill="#B33B29"/>
<path d="M63.2785 84.4382C63.2785 84.146 63.1887 83.8604 63.0205 83.6174C62.8524 83.3745 62.6134 83.1853 62.3338 83.0738C62.0542 82.9622 61.7466 82.9333 61.4501 82.9907C61.1535 83.0481 60.8812 83.1893 60.6677 83.3963C60.4542 83.6034 60.3091 83.8669 60.2508 84.1537C60.1925 84.4404 60.2236 84.7375 60.3402 85.0071C60.4567 85.2768 60.6535 85.507 60.9056 85.6685C61.1576 85.8301 61.4537 85.9157 61.7562 85.9146C61.9566 85.9146 62.155 85.8764 62.3401 85.8021C62.5252 85.7278 62.6932 85.619 62.8347 85.4818C62.9761 85.3447 63.0881 85.1819 63.1643 85.0028C63.2405 84.8237 63.2793 84.6319 63.2785 84.4382Z" fill="#DD6534"/>
<path d="M61.751 85.937C61.5642 85.937 61.3815 85.8835 61.2261 85.7832C61.0707 85.6829 60.9496 85.5403 60.8781 85.3735C60.8066 85.2067 60.7878 85.0232 60.8243 84.8461C60.8608 84.669 60.9508 84.5064 61.0829 84.3787C61.2151 84.251 61.3834 84.1641 61.5667 84.1289C61.75 84.0936 61.94 84.1117 62.1126 84.1808C62.2853 84.2499 62.4329 84.3669 62.5367 84.517C62.6405 84.6671 62.6959 84.8436 62.6959 85.0242C62.6967 85.1443 62.6728 85.2633 62.6256 85.3744C62.5784 85.4855 62.5088 85.5864 62.4209 85.6713C62.333 85.7562 62.2285 85.8235 62.1136 85.8691C61.9986 85.9147 61.8753 85.9378 61.751 85.937Z" fill="#B33B29"/>
<path d="M63.2785 87.9771C63.2796 87.6846 63.1908 87.3984 63.0234 87.1548C62.8559 86.9111 62.6173 86.721 62.3378 86.6086C62.0583 86.4961 61.7506 86.4664 61.4536 86.5232C61.1566 86.58 60.8838 86.7207 60.6698 86.9275C60.4557 87.1343 60.31 87.3979 60.2512 87.6848C60.1925 87.9717 60.2232 88.269 60.3396 88.539C60.456 88.809 60.6528 89.0395 60.905 89.2013C61.1572 89.3631 61.4534 89.4489 61.7562 89.4478C61.9561 89.4478 62.154 89.4097 62.3387 89.3358C62.5234 89.2619 62.6912 89.1536 62.8326 89.017C62.974 88.8805 63.0861 88.7183 63.1626 88.5399C63.2391 88.3615 63.2785 88.1702 63.2785 87.9771Z" fill="#DD6534"/>
<path d="M61.751 89.4478C61.5639 89.4478 61.381 89.3941 61.2255 89.2935C61.07 89.193 60.9489 89.0501 60.8775 88.8829C60.8062 88.7158 60.7878 88.532 60.8247 88.3547C60.8617 88.1775 60.9522 88.0149 61.085 87.8874C61.2177 87.76 61.3866 87.6735 61.5703 87.6389C61.754 87.6043 61.9441 87.6232 62.1167 87.6932C62.2892 87.7631 62.4364 87.881 62.5395 88.0319C62.6426 88.1827 62.6971 88.3598 62.6959 88.5406C62.6959 88.6602 62.6714 88.7786 62.6239 88.889C62.5763 88.9995 62.5066 89.0997 62.4188 89.1841C62.331 89.2684 62.2268 89.3351 62.1122 89.3803C61.9976 89.4256 61.8748 89.4485 61.751 89.4478Z" fill="#B33B29"/>
<path d="M61.751 73.3606L51.1239 67.4327C50.8562 67.2766 50.5502 67.1927 50.2376 67.1895C49.925 67.1864 49.6173 67.2643 49.3464 67.415C49.0755 67.5657 48.8513 67.7837 48.6972 68.0465C48.543 68.3092 48.4646 68.6071 48.47 68.9091V77.8065C48.4646 78.1085 48.543 78.4063 48.6972 78.6691C48.8513 78.9318 49.0755 79.1499 49.3464 79.3006C49.6173 79.4513 49.925 79.5292 50.2376 79.526C50.5502 79.5229 50.8562 79.439 51.1239 79.2829L61.751 73.3606Z" fill="#ED845A"/>
<path d="M50.697 78.3362C50.5423 78.3362 50.394 78.2768 50.2846 78.1712C50.1752 78.0655 50.1138 77.9222 50.1138 77.7727V70.3516C50.1138 70.2021 50.1752 70.0588 50.2846 69.9531C50.394 69.8475 50.5423 69.7881 50.697 69.7881C50.7972 69.7884 50.8957 69.8136 50.9828 69.8613L58.5012 74.0593L50.9828 78.2404C50.8962 78.2901 50.7978 78.3173 50.697 78.3193" fill="#B33B29"/>
<path d="M61.751 73.3606L72.3723 67.4327C72.6399 67.2766 72.946 67.1927 73.2586 67.1895C73.5711 67.1864 73.8789 67.2643 74.1498 67.415C74.4207 67.5657 74.6449 67.7837 74.799 68.0465C74.9531 68.3092 75.0316 68.6071 75.0262 68.9091V77.8065C75.0316 78.1085 74.9531 78.4063 74.799 78.6691C74.6449 78.9318 74.4207 79.1499 74.1498 79.3006C73.8789 79.4513 73.5711 79.5292 73.2586 79.526C72.946 79.5229 72.6399 79.439 72.3723 79.2829L61.751 73.3606Z" fill="#ED845A"/>
<path d="M72.8334 78.3354C72.7327 78.3334 72.6342 78.3062 72.5476 78.2566L65.0293 74.0642L72.5476 69.8662C72.6348 69.8185 72.7332 69.7933 72.8334 69.793C72.9881 69.793 73.1365 69.8523 73.2459 69.958C73.3552 70.0637 73.4167 70.207 73.4167 70.3565V77.7832C73.4167 77.9327 73.3552 78.076 73.2459 78.1817C73.1365 78.2873 72.9881 78.3467 72.8334 78.3467" fill="#B33B29"/>
<path d="M61.7506 78.4377C60.8277 78.4377 59.9256 78.1733 59.1583 77.678C58.3909 77.1826 57.7928 76.4786 57.4397 75.6549C57.0865 74.8312 56.9941 73.9248 57.1741 73.0503C57.3542 72.1759 57.7986 71.3727 58.4512 70.7422C59.1037 70.1118 59.9352 69.6824 60.8403 69.5085C61.7455 69.3346 62.6837 69.4238 63.5363 69.765C64.3889 70.1062 65.1177 70.684 65.6304 71.4253C66.1431 72.1666 66.4168 73.0382 66.4168 73.9298C66.4168 75.1254 65.9252 76.2719 65.0501 77.1173C64.175 77.9627 62.9882 78.4377 61.7506 78.4377Z" fill="#FCA621"/>
<path d="M61.7511 77.4455C60.8707 77.4466 60.0097 77.1954 59.277 76.7237C58.5444 76.2519 57.9731 75.5808 57.6354 74.7953C57.2976 74.0098 57.2087 73.1452 57.3797 72.3108C57.5508 71.4764 57.9742 70.7098 58.5963 70.1079C59.2185 69.5061 60.0115 69.0961 60.8749 68.9297C61.7383 68.7634 62.6334 68.8482 63.447 69.1734C64.2605 69.4987 64.9559 70.0497 65.4452 70.7569C65.9344 71.464 66.1956 72.2955 66.1956 73.1461C66.1941 74.2849 65.7255 75.3768 64.8925 76.1826C64.0595 76.9884 62.9299 77.4425 61.7511 77.4455Z" fill="#FCEE21"/>
<path d="M64.5219 73.0394C64.5231 72.5084 64.3611 71.9891 64.0565 71.5471C63.7519 71.1052 63.3183 70.7605 62.8108 70.5568C62.3032 70.3531 61.7445 70.2995 61.2054 70.4028C60.6663 70.5061 60.171 70.7617 59.7824 71.1372C59.3938 71.5126 59.1292 71.9911 59.0223 72.5119C58.9154 73.0327 58.9708 73.5725 59.1817 74.0628C59.3926 74.5531 59.7493 74.972 60.2068 75.2663C60.6642 75.5606 61.2018 75.7171 61.7514 75.716C62.4862 75.716 63.1909 75.434 63.7105 74.932C64.2301 74.4301 64.5219 73.7493 64.5219 73.0394Z" fill="#9D5100"/>
</svg>
