<svg width="81" height="81" viewBox="0 0 81 81" fill="none" xmlns="http://www.w3.org/2000/svg">
<g clip-path="url(#clip0_6974_70772)">
<path d="M30.6177 1.28279C33.4335 -0.35638 36.9154 -0.245494 39.9655 0.599804C39.9464 2.00596 39.9814 3.41211 40.0372 4.81826C40.0117 9.10421 40.1073 13.3934 39.9655 17.6777C39.948 20.9995 39.8874 24.3196 39.8269 27.6381C39.7201 30.5822 39.7647 33.5311 39.6277 36.4736C39.6149 38.9371 39.6245 41.4023 39.5623 43.8643C39.6213 45.7927 39.4444 47.7164 39.4842 49.6448C39.4715 54.7728 39.3854 59.8993 39.4205 65.0273C37.9178 64.955 36.4198 65.1719 34.9219 65.0257C33.1291 65.1751 31.33 65.0835 29.5357 65.1478C29.5038 61.908 29.6392 58.6731 29.6105 55.4349C29.5851 51.4704 29.6982 47.5074 29.6854 43.5429C29.805 38.9355 29.7046 34.325 29.8767 29.7192C29.8846 24.7342 30.0472 19.7508 30.0249 14.7658C30.044 10.4798 30.0137 6.19388 30.0265 1.90953C29.9818 1.55599 30.3978 1.45635 30.6177 1.28279Z" fill="#C67DD8"/>
<path d="M40.5977 0.422354C50.6483 0.239152 60.7881 4.03335 68.0755 11.0577C69.0109 11.9319 69.8698 12.8849 70.7336 13.8298C69.183 14.2541 67.6787 14.9772 66.5377 16.1391C65.5816 17.0728 64.8947 18.2459 64.3832 19.4753C60.3547 14.8455 54.8999 11.535 48.9799 10.0388C48.9607 12.046 48.9878 14.0516 48.9623 16.0588C48.8014 17.9229 48.9273 19.7951 48.8444 21.6641C48.795 23.1281 48.8588 24.5937 48.803 26.0577C48.7615 26.8227 48.1592 27.5924 47.3576 27.586C45.5999 27.5973 43.8406 27.5876 42.0829 27.5892C41.3547 27.6583 40.6535 27.0846 40.5499 26.3614C40.4942 25.9275 40.5165 25.4872 40.5276 25.0517C40.6487 22.7553 40.5292 20.4524 40.6583 18.1559C40.6487 14.2975 40.7778 10.4406 40.6918 6.5821C40.6089 4.52993 40.7412 2.47293 40.5977 0.422354Z" fill="#C67DD8"/>
<path d="M67.8127 18.9184C69.4916 17.6897 70.6826 16.3891 72.5263 15.584C73.5064 17.228 74.539 18.8447 75.4107 20.5529C76.1342 22.1439 76.9166 23.7107 77.5301 25.3499C79.7914 31.259 80.5834 37.7257 79.8328 44.0108C79.044 50.9628 76.4991 57.7107 72.4674 63.4092C66.2971 72.1033 56.5525 77.9995 46.1338 79.7849C46.921 76.8585 46.9736 73.7473 46.2676 70.7984C52.1304 69.4645 57.6361 66.4996 61.9371 62.257C66.7194 57.5629 69.8603 51.2537 70.9312 44.6263C70.9328 44.7532 70.936 44.8818 70.9392 45.0103C71.03 43.8742 71.2515 42.7525 71.3168 41.6147C71.3949 40.0639 71.3997 38.5083 71.3264 36.9575C70.9758 31.7941 69.25 26.7287 66.3545 22.454C66.0405 22.0089 65.7155 21.567 65.5322 21.0479C66.133 20.2733 66.7163 19.8708 67.8127 18.9184Z" fill="#C67DD8"/>
<path d="M58.8602 25.3843C60.6896 24.0055 62.5095 22.6138 64.3341 21.2285C66.9778 25.042 68.7562 29.4742 69.3714 34.0928C70.6574 43.7736 67.3316 54.0216 60.4745 60.9527C55.56 65.9072 49.0359 69.2354 42.147 70.2044C42.8625 67.9288 43.0123 65.4974 42.598 63.1479C50.0622 61.8735 56.7233 56.7809 60.1239 49.9815C61.9502 46.3673 62.9605 42.3095 62.8872 38.2454C62.9222 33.6734 61.4402 29.1335 58.8602 25.3843Z" fill="#C67DD8"/>
<path d="M2.3346 33.6146C5.31455 33.0875 8.40288 33.6821 11.0928 35.0368C10.6944 37.2015 10.5797 39.4079 10.6147 41.6063C7.78298 42.712 4.55761 42.8245 1.72267 41.6706C1.69399 38.9756 1.84059 36.2678 2.3346 33.6146Z" fill="#C67DD8"/>
<path d="M8.34591 44.1961C9.12994 43.992 9.84067 43.5919 10.5514 43.2158C11.0199 48.887 13.0453 54.4249 16.3838 59.0178C19.6777 63.6299 24.2879 67.2731 29.5227 69.3847C33.0015 70.7812 36.7495 71.5317 40.4976 71.4771C41.8091 71.4787 43.1254 71.4755 44.4209 71.2537C45.3803 74.1239 45.0854 77.2335 44.3859 80.1261C37.771 80.8075 30.9585 79.8545 24.86 77.1435C20.5287 75.2391 16.5846 72.4702 13.2445 69.1035C6.62168 62.3973 2.43858 53.2983 1.68164 43.8586C3.8202 44.5416 6.15795 44.7843 8.34591 44.1961Z" fill="#C67DD8"/>
</g>
<defs>
<clipPath id="clip0_6974_70772">
<rect width="79.678" height="80.3516" fill="white" transform="translate(0.975586 -0.0078125)"/>
</clipPath>
</defs>
</svg>
